<?xml version="1.0" encoding="utf-8"?>
<!-- Generator: Adobe Illustrator 26.5.0, SVG Export Plug-In . SVG Version: 6.00 Build 0)  -->
<svg version="1.1" id="レイヤー_1" xmlns="http://www.w3.org/2000/svg" xmlns:xlink="http://www.w3.org/1999/xlink" x="0px"
	 y="0px" viewBox="0 0 113.4 113.4" style="enable-background:new 0 0 113.4 113.4;" xml:space="preserve">
<style type="text/css">
	.st0{fill:none;}
	.st1{fill:#464646;}
</style>
<path class="st0" d="M0,0h24v24H0V0z"/>
<path class="st1" d="M56.7,0C25.4,0,0,25.4,0,56.7s25.4,56.7,56.7,56.7H85V102H56.7c-24.6,0-45.4-20.7-45.4-45.4
	s20.7-45.4,45.4-45.4S102,32.1,102,56.7v8.1c0,4.5-4,8.9-8.5,8.9S85,69.3,85,64.8v-8.1C85,41,72.3,28.3,56.7,28.3S28.3,41,28.3,56.7
	S41,85,56.7,85c7.8,0,15-3.2,20.1-8.3c3.7,5,10,8.3,16.8,8.3c11.2,0,19.8-9.1,19.8-20.2v-8.1C113.4,25.4,88,0,56.7,0z M56.7,73.7
	c-9.4,0-17-7.6-17-17s7.6-17,17-17s17,7.6,17,17S66.1,73.7,56.7,73.7z"/>
</svg>
