<?xml version="1.0" encoding="utf-8"?>
<!-- Generator: Adobe Illustrator 26.5.0, SVG Export Plug-In . SVG Version: 6.00 Build 0)  -->
<svg version="1.1" id="_レイヤー_2" xmlns="http://www.w3.org/2000/svg" xmlns:xlink="http://www.w3.org/1999/xlink" x="0px"
	 y="0px" viewBox="0 0 400 400" style="enable-background:new 0 0 400 400;" xml:space="preserve">
<style type="text/css">
	.st0{fill:#D4D4D4;}
</style>
<g id="LINE_LOGO">
	<g>
		<path class="st0" d="M200,0C89.5,0,0,89.5,0,200s89.5,200,200,200s200-89.5,200-200S310.5,0,200,0z M304.8,255
			c-28,32.2-90.6,71.5-104.9,77.5c-14.2,6-12.1-3.8-11.6-7.2c0.3-2,1.9-11.4,1.9-11.4c0.4-3.4,0.9-8.7-0.4-12.1
			c-1.5-3.7-7.4-5.6-11.8-6.6c-64.2-8.5-111.7-53.3-111.7-106.9C66.4,128.6,126.3,80,199.9,80s133.5,48.6,133.5,108.3
			C333.4,212.3,324.1,233.8,304.8,255L304.8,255L304.8,255z"/>
		<path class="st0" d="M289,159.5h-37.5c-1.4,0-2.6,1.1-2.6,2.6v0.1l0,0v58.2l0,0l0,0c0,1.4,1.1,2.6,2.6,2.6H289
			c1.4,0,2.5-1.1,2.5-2.6v-9.5c0-1.4-1.1-2.6-2.5-2.6h-25.5v-9.8H289c1.4,0,2.5-1.1,2.5-2.6v-9.5c0-1.4-1.1-2.6-2.5-2.6h-25.5V174
			H289c1.4,0,2.5-1.1,2.5-2.6V162C291.5,160.6,290.4,159.5,289,159.5L289,159.5z"/>
		<path class="st0" d="M150.2,208.3h-25.5V162c0-1.4-1.2-2.6-2.6-2.6h-9.5c-1.4,0-2.6,1.1-2.6,2.6v58.2l0,0l0,0
			c0,1.4,1.1,2.6,2.6,2.6h37.5c1.4,0,2.6-1.1,2.6-2.6v-9.5C152.8,209.4,151.6,208.3,150.2,208.3L150.2,208.3z"/>
		<path class="st0" d="M163.3,159.5h9.5c1.4,0,2.6,1.1,2.6,2.6v58.3c0,1.4-1.1,2.6-2.6,2.6h-9.5c-1.4,0-2.6-1.1-2.6-2.6V162
			C160.8,160.6,161.9,159.5,163.3,159.5z"/>
		<path class="st0" d="M237.2,159.5h-9.5c-1.4,0-2.6,1.1-2.6,2.6v34.6l-26.7-36c-0.1-0.1-0.1-0.2-0.2-0.3l0,0
			c-0.1-0.1-0.1-0.1-0.1-0.2c0,0,0,0-0.1,0s-0.1-0.1-0.1-0.1s-0.1,0-0.1-0.1l-0.1-0.1c0,0-0.1,0-0.1-0.1c-0.1,0-0.1-0.1-0.1-0.1
			h-0.1c-0.1,0-0.1,0-0.1-0.1h-0.1c-0.1,0-0.1,0-0.1-0.1H197c-0.1,0-0.1,0-0.1,0h-0.1c-0.1,0-0.1,0-0.1,0c-0.1,0-0.1,0-0.1,0h-0.1
			H187c-1.4,0-2.6,1.1-2.6,2.6v58.3c0,1.4,1.1,2.6,2.6,2.6h9.5c1.4,0,2.6-1.1,2.6-2.6v-34.6l26.7,36.1c0.2,0.3,0.4,0.5,0.7,0.6l0,0
			c0.1,0,0.1,0.1,0.2,0.1h0.1c0,0,0.1,0,0.1,0.1s0.1,0,0.1,0.1h0.1c0.1,0,0.1,0,0.2,0.1l0,0c0.2,0.1,0.4,0.1,0.7,0.1h9.4
			c1.4,0,2.6-1.1,2.6-2.6V162C239.8,160.6,238.6,159.5,237.2,159.5L237.2,159.5z"/>
	</g>
</g>
</svg>
