<?xml version="1.0" encoding="utf-8"?>
<!-- Generator: Adobe Illustrator 26.5.0, SVG Export Plug-In . SVG Version: 6.00 Build 0)  -->
<svg version="1.1" id="レイヤー_1" xmlns="http://www.w3.org/2000/svg" xmlns:xlink="http://www.w3.org/1999/xlink" x="0px"
	 y="0px" viewBox="0 0 400 400" style="enable-background:new 0 0 400 400;" xml:space="preserve">
<style type="text/css">
	.st0{fill:#464646;}
</style>
<path class="st0" d="M200,0C89.5,0,0,89.5,0,200s89.5,200,200,200s200-89.5,200-200S310.5,0,200,0z M300.5,162.1
	c0.1,2.1,0.1,4.2,0.1,6.2c0,63.7-48.5,137.2-137.2,137.2c-26.2,0-51.9-7.5-73.9-21.7c3.8,0.4,7.7,0.7,11.5,0.7
	c21.7,0,42.8-7.2,59.8-20.6c-20.6-0.4-38.7-13.9-45-33.5c7.2,1.4,14.7,1.1,21.8-0.8c-22.5-4.5-38.7-24.3-38.7-47.3
	c0-0.2,0-0.4,0-0.6c6.7,3.7,14.2,5.8,21.8,6c-21.2-14.2-27.7-42.3-14.9-64.4c24.5,30.1,60.6,48.4,99.4,50.4
	c-3.9-16.8,1.4-34.4,14-46.2c19.4-18.2,50-17.2,68.2,2.2c10.8-2.1,21.1-6.1,30.6-11.7c-3.6,11.2-11.1,20.6-21.2,26.7
	c9.6-1.1,18.9-3.7,27.7-7.6C318,146.8,309.9,155.2,300.5,162.1z"/>
</svg>
