<?xml version="1.0" encoding="UTF-8"?>
<svg id="_レイヤー_2" data-name="レイヤー 2" xmlns="http://www.w3.org/2000/svg" viewBox="0 0 400 400">
  <defs>
    <style>
      .cls-1 {
        fill: #464646;
      }
    </style>
  </defs>
  <g id="LINE_LOGO" data-name="LINE LOGO">
    <g>
      <path class="cls-1" d="M200,0C89.54,0,0,89.54,0,200s89.54,200,200,200,200-89.54,200-200S310.46,0,200,0Zm104.77,255.02c-28.01,32.24-90.65,71.51-104.9,77.52-14.25,6-12.15-3.82-11.57-7.2,.34-2.01,1.91-11.43,1.91-11.43,.45-3.41,.91-8.7-.43-12.07-1.5-3.72-7.42-5.64-11.76-6.58-64.16-8.48-111.66-53.34-111.66-106.9,0-59.74,59.9-108.35,133.52-108.35s133.52,48.61,133.52,108.35c0,23.91-9.27,45.44-28.62,66.67h0Z"/>
      <path class="cls-1" d="M288.96,159.48h-37.51c-1.41,0-2.55,1.14-2.55,2.55v.06h0v58.17h0v.04c0,1.41,1.14,2.55,2.55,2.55h37.51c1.41,0,2.55-1.14,2.55-2.55v-9.47c0-1.4-1.15-2.55-2.55-2.55h-25.49v-9.83h25.49c1.41,0,2.55-1.14,2.55-2.55v-9.47c0-1.4-1.15-2.55-2.55-2.55h-25.49v-9.83h25.49c1.41,0,2.55-1.14,2.55-2.55v-9.47c0-1.4-1.15-2.55-2.55-2.55Z"/>
      <path class="cls-1" d="M150.21,208.28h-25.49v-46.25c0-1.4-1.15-2.55-2.55-2.55h-9.47c-1.41,0-2.55,1.14-2.55,2.55v58.22h0v.04c0,1.41,1.14,2.55,2.55,2.55h37.51c1.41,0,2.55-1.14,2.55-2.55v-9.47c0-1.4-1.15-2.55-2.55-2.55Z"/>
      <rect class="cls-1" x="160.77" y="159.48" width="14.57" height="63.37" rx="2.55" ry="2.55"/>
      <path class="cls-1" d="M237.25,159.48h-9.47c-1.41,0-2.55,1.14-2.55,2.55v34.61l-26.66-36c-.06-.09-.13-.18-.21-.26,0,0-.01-.01-.02-.02-.05-.06-.1-.11-.15-.16-.02-.01-.03-.03-.05-.04-.05-.04-.09-.08-.14-.12-.02-.02-.05-.03-.07-.05-.04-.03-.09-.06-.13-.09-.03-.02-.05-.03-.08-.05-.05-.03-.09-.05-.14-.08-.03-.01-.05-.03-.08-.04-.05-.02-.1-.04-.15-.06-.03-.01-.06-.02-.08-.03-.05-.02-.1-.03-.15-.05-.03,0-.06-.02-.09-.02-.05-.01-.1-.02-.15-.03-.04,0-.07-.01-.11-.02-.05,0-.09-.01-.14-.02-.05,0-.09,0-.14,0-.03,0-.06,0-.09,0h-9.42c-1.41,0-2.55,1.14-2.55,2.55v58.27c0,1.41,1.14,2.55,2.55,2.55h9.47c1.41,0,2.55-1.14,2.55-2.55v-34.6l26.69,36.05c.18,.26,.41,.47,.66,.64,0,0,.02,.01,.03,.02,.05,.03,.11,.07,.16,.1,.02,.01,.05,.03,.07,.04,.04,.02,.08,.04,.12,.06,.04,.02,.08,.04,.12,.05,.03,.01,.05,.02,.08,.03,.06,.02,.12,.04,.18,.06,.01,0,.02,0,.04,0,.21,.06,.44,.09,.67,.09h9.42c1.41,0,2.55-1.14,2.55-2.55v-58.27c0-1.41-1.14-2.55-2.55-2.55Z"/>
    </g>
  </g>
</svg>