<?xml version="1.0" encoding="utf-8"?>
<!-- Generator: Adobe Illustrator 26.5.0, SVG Export Plug-In . SVG Version: 6.00 Build 0)  -->
<svg version="1.1" id="Layer_1" xmlns="http://www.w3.org/2000/svg" xmlns:xlink="http://www.w3.org/1999/xlink" x="0px" y="0px"
	 viewBox="0 0 400 400" style="enable-background:new 0 0 400 400;" xml:space="preserve">
<style type="text/css">
	.st0{fill:#464646;}
</style>
<path class="st0" d="M200,0C89.5,0,0,90.1,0,201.2C0,301.6,73.1,384.9,168.8,400V259.4H118v-58.2h50.8v-44.3
	c0-50.4,29.8-78.3,75.5-78.3c21.5,0,44.1,3.8,44.8,3.9l0,0V132h-25.2c-24.8,0-32.6,15.5-32.6,31.4v37.7h55.5l-8.9,58.2h-46.6V400
	C326.9,384.9,400,301.7,400,201.2C400,90.1,310.5,0,200,0z"/>
</svg>
